<?xml version="1.0" standalone="no"?><!DOCTYPE svg PUBLIC "-//W3C//DTD SVG 1.1//EN" "http://www.w3.org/Graphics/SVG/1.1/DTD/svg11.dtd"><svg t="1690945902706" class="icon" viewBox="0 0 1383 1024" version="1.1" xmlns="http://www.w3.org/2000/svg" p-id="3310" xmlns:xlink="http://www.w3.org/1999/xlink" width="270.1171875" height="200"><path d="M882.854054 542.000432c-146.681081 0-265.686486-119.005405-265.686486-265.686486s119.005405-262.918919 265.686486-262.918919 265.686486 119.005405 265.686487 265.686487-121.772973 262.918919-265.686487 262.918918z m0-473.254054c-116.237838 0-210.335135 94.097297-210.335135 210.335136 0 116.237838 94.097297 210.335135 210.335135 210.335135s210.335135-94.097297 210.335135-210.335135c-2.767568-116.237838-96.864865-210.335135-210.335135-210.335136z" fill="#3B6CB9" p-id="3311"></path><path d="M1356.108108 1018.022054c-16.605405 0-27.675676-11.07027-27.675676-27.675676 0-246.313514-199.264865-445.578378-445.578378-445.578378s-445.578378 199.264865-445.578378 445.578378c0 16.605405-11.07027 27.675676-27.675676 27.675676s-27.675676-11.07027-27.675676-27.675676c0-276.756757 224.172973-500.92973 500.92973-500.929729s500.92973 224.172973 500.92973 500.929729c0 13.837838-11.07027 27.675676-27.675676 27.675676zM431.740541 539.232865h-5.535136c-110.702703-24.908108-188.194595-121.772973-188.194594-235.243243 0-132.843243 107.935135-240.778378 240.778378-240.778379 16.605405 0 27.675676 11.07027 27.675676 27.675676s-11.07027 27.675676-27.675676 27.675676c-102.4 0-185.427027 83.027027-185.427027 185.427027 0 88.562162 58.118919 163.286486 143.913514 179.891892 13.837838 2.767568 24.908108 19.372973 22.14054 33.21081-5.535135 11.07027-16.605405 22.140541-27.675675 22.140541z" fill="#3B6CB9" p-id="3312"></path><path d="M27.675676 970.973405c-16.605405 0-27.675676-11.07027-27.675676-27.675675 0-251.848649 204.8-453.881081 453.881081-453.881081 16.605405 0 27.675676 11.07027 27.675676 27.675675s-11.07027 27.675676-27.675676 27.675676c-218.637838-2.767568-398.52973 177.124324-398.52973 398.52973 0 13.837838-11.07027 27.675676-27.675675 27.675675z" fill="#3B6CB9" p-id="3313"></path></svg>